<?xml version="1.0" encoding="utf-8"?>
<svg xmlns="http://www.w3.org/2000/svg" viewBox="0 0 48 48" width="96" height="96">
  <path d="M5.4746094 3.984375 A 1.50015 1.50015 0 0 0 4.4296875 6.5605469L12.869141 15L9.5 15C7.02 15 5 17.02 5 19.5L5 28.5C5 30.98 7.02 33 9.5 33L16.119141 33L25.339844 41.199219C25.869844 41.669219 26.519453 41.910156 27.189453 41.910156C27.579453 41.910156 27.969609 41.830156 28.349609 41.660156C29.369609 41.200156 30 40.219375 30 39.109375L30 32.130859L41.429688 43.560547 A 1.50015 1.50015 0 1 0 43.550781 41.439453L6.5507812 4.4394531 A 1.50015 1.50015 0 0 0 5.4746094 3.984375 z M 27.189453 6.0898438C26.519453 6.0898438 25.859844 6.3307813 25.339844 6.8007812L18.890625 12.539062L21.009766 14.660156L27 9.3398438L27 20.650391L30 23.650391L30 8.9003906C30 7.7803906 29.369609 6.7998438 28.349609 6.3398438C27.969609 6.1698438 27.579453 6.0898438 27.189453 6.0898438 z M 38.640625 12.005859C38.446719 12.021484 38.252812 12.074922 38.070312 12.169922C37.330312 12.549922 37.049687 13.459453 37.429688 14.189453C40.559687 20.169453 40.850547 26.000937 38.310547 31.960938L40.570312 34.220703C43.960313 27.110703 43.799844 19.910547 40.089844 12.810547C39.804844 12.255547 39.222344 11.958984 38.640625 12.005859 z M 34.203125 17.011719C34.0075 17.017344 33.809141 17.062891 33.619141 17.150391C32.869141 17.500391 32.540859 18.380625 32.880859 19.140625C34.120859 21.850625 34.329531 24.489922 33.519531 27.169922L35.859375 29.509766C37.459375 25.649766 37.379375 21.750625 35.609375 17.890625C35.354375 17.328125 34.79 16.994844 34.203125 17.011719 z M 9.5 18L15.869141 18L27 29.130859L27 38.660156L17.679688 30.380859C17.409688 30.130859 17.049453 30 16.689453 30L9.5 30C8.67 30 8 29.33 8 28.5L8 19.5C8 18.67 8.67 18 9.5 18 z" fill="#CCCCCC" />
</svg>