<?xml version="1.0" encoding="utf-8"?>
<svg xmlns="http://www.w3.org/2000/svg" viewBox="0 0 48 48" width="96" height="96">
  <path d="M24.216797 6.1015625C24.084935 6.1013567 23.952471 6.1110209 23.820312 6.1289062C23.29168 6.2004472 22.770296 6.4185563 22.339844 6.8007812 A 1.50015 1.50015 0 0 0 22.339844 6.8027344L13.117188 15L6.5 15C4.0324991 15 2 17.032499 2 19.5L2 28.5C2 30.967501 4.0324991 33 6.5 33L13.117188 33L22.339844 41.197266C23.200649 41.96254 24.421458 42.075139 25.345703 41.660156C26.269948 41.245173 27 40.257378 27 39.105469L27 8.8945312C27 7.7430679 26.271967 6.7549754 25.347656 6.3398438C25.00104 6.1841693 24.612384 6.10218 24.216797 6.1015625 z M 40.21875 7.9824219 A 1.50015 1.50015 0 0 0 38.992188 10.251953C44.374902 19.537137 44.394285 28.463914 38.994141 37.746094 A 1.50015 1.50015 0 1 0 41.585938 39.253906C47.425745 29.216086 47.405128 18.782863 41.587891 8.7480469 A 1.50015 1.50015 0 0 0 40.21875 7.9824219 z M 24 9.3398438L24 38.660156L14.683594 30.378906 A 1.50015 1.50015 0 0 0 13.6875 30L6.5 30C5.6535009 30 5 29.346499 5 28.5L5 19.5C5 18.653501 5.6535009 18 6.5 18L13.6875 18 A 1.50015 1.50015 0 0 0 14.683594 17.621094L24 9.3398438 z M 35.755859 11.980469 A 1.50015 1.50015 0 0 0 34.429688 14.193359C37.888956 20.818098 37.888956 27.181902 34.429688 33.806641 A 1.50015 1.50015 0 1 0 37.089844 35.193359C40.930574 27.838098 40.930574 20.161902 37.089844 12.806641 A 1.50015 1.50015 0 0 0 35.755859 11.980469 z M 31.171875 16.996094 A 1.50015 1.50015 0 0 0 29.880859 19.138672C31.397398 22.45712 31.395303 25.559819 29.873047 28.878906 A 1.50015 1.50015 0 1 0 32.599609 30.130859C34.437342 26.123947 34.440802 21.898177 32.609375 17.890625 A 1.50015 1.50015 0 0 0 31.171875 16.996094 z" fill="#CCCCCC" />
</svg>